<svg width="95" height="28" fill="none" xmlns="http://www.w3.org/2000/svg">
  <path fill-rule="evenodd" clip-rule="evenodd" d="M.36.02v4.29h8.4v22.1h4.62V4.3h8.41V.02H.36zm26.22 0V26.4h19.78v-4.12H31.19v-7.09h13.2v-4.12h-13.2V4.14h15V.02H26.59zm33.8 0c-5.28 0-9.07 3.14-9.07 7.59 0 4.94 3.13 6.6 8.73 7.91 4.95.99 5.94 2.14 5.94 3.96 0 1.98-1.81 3.3-4.62 3.3-3.3 0-5.93-1.32-8.4-3.47l-2.8 3.3c3.12 2.8 6.92 4.12 11.2 4.45 5.44 0 9.4-2.96 9.4-7.91 0-4.45-2.8-6.43-8.4-7.75-5.12-1.16-6.27-2.14-6.27-4.12 0-1.82 1.65-3.14 4.28-3.14 2.31 0 4.79.83 7.1 2.64l2.47-3.46a14.64 14.64 0 00-9.57-3.3zm13.18 0v4.29h8.41v22.1h4.62V4.3H95V.02H73.56z" fill="#F25B24"/>
</svg>
